<svg xmlns="http://www.w3.org/2000/svg" id="prefix__svg939" version="1.1" fill="none" viewBox="11 10 25 30"><style id="style931" type="text/css">path{fill:#2b2b29}@media (prefers-color-scheme:dark){path{fill:#eee}}</style><path id="prefix__path935" d="m23 24.5-.6-2h-3.7l-.7 2 1.2.4v1h-3.5v-1l.8-.4 3.7-10.7H23l3.7 10.7.9.4v1h-5.8v-1l1.2-.4Zm-2.4-8L19 21h3l-1.5-4.5Z"/><path id="prefix__path937" d="m18.3 28.4-.9.9 4.5 6.3h.5l12.8-13.3-.9-.9-12 10.8-4-3.8Z" clip-rule="evenodd" fill-rule="evenodd"/><path id="prefix__path947" d="M9.4 35.1c0 2.4 1.5 3.7 3.7 3.7" fill="none" stroke="#2b2b29" stroke-width="2.1" stroke-linecap="butt" stroke-linejoin="miter" stroke-miterlimit="4" stroke-dasharray="none" stroke-opacity="1"/><path d="M13 11.2c-2.3 0-3.6 1.5-3.6 3.7" id="prefix__path947-2" fill="none" stroke="#2b2b29" stroke-width="2.1" stroke-linecap="butt" stroke-linejoin="miter" stroke-miterlimit="4" stroke-dasharray="none" stroke-opacity="1"/><path id="prefix__path947-2-3" d="M37.6 14.9c0-2.4-1.5-3.7-3.7-3.7" fill="none" stroke="#2b2b29" stroke-width="2.1" stroke-linecap="butt" stroke-linejoin="miter" stroke-miterlimit="4" stroke-dasharray="none" stroke-opacity="1"/><path d="M34 38.8c2.3 0 3.6-1.5 3.6-3.7" id="prefix__path947-2-3-9" fill="none" stroke="#2b2b29" stroke-width="2.1" stroke-linecap="butt" stroke-linejoin="miter" stroke-miterlimit="4" stroke-dasharray="none" stroke-opacity="1"/><path id="prefix__path994-6-7" d="M30.1 11.2h-4.7" fill="none" stroke="#2b2b29" stroke-width="2.1" stroke-linecap="butt" stroke-linejoin="miter" stroke-miterlimit="4" stroke-dasharray="none" stroke-opacity="1"/><path d="M21.6 11.2h-4.7" id="prefix__path994-3-2-0" fill="none" stroke="#2b2b29" stroke-width="2.1" stroke-linecap="butt" stroke-linejoin="miter" stroke-miterlimit="4" stroke-dasharray="none" stroke-opacity="1"/><path d="M30.1 38.8h-4.7" id="prefix__path994-6-7-3" fill="none" stroke="#2b2b29" stroke-width="2.1" stroke-linecap="butt" stroke-linejoin="miter" stroke-miterlimit="4" stroke-dasharray="none" stroke-opacity="1"/><path id="prefix__path994-3-2-0-9" d="M21.6 38.8h-4.7" fill="none" stroke="#2b2b29" stroke-width="2.1" stroke-linecap="butt" stroke-linejoin="miter" stroke-miterlimit="4" stroke-dasharray="none" stroke-opacity="1"/></svg>