<svg xmlns="http://www.w3.org/2000/svg" id="svg939" width="50" height="49" fill="none" version="1.1" viewBox="11 10 25 30"><style id="style931" type="text/css">path{fill:#2b2b29}@media (prefers-color-scheme:dark){path{fill:#eee}}</style><path id="path935" d="m23.074 24.535-.627-2.097H18.7l-.661 2.097 1.203.4v.898h-3.576v-.899l.797-.4 3.712-10.701h2.915l3.712 10.702.864.4v.898H21.87v-.899l1.204-.4Zm-2.509-8.039-1.423 4.527h2.88l-1.372-4.527h-.085Z"/><path id="path937" fill-rule="evenodd" d="m18.343 28.396-.899.899 4.495 6.293h.427l12.856-13.305-.899-.877L22.366 32.24l-4.023-3.843Z" clip-rule="evenodd"/><path id="path1932" d="M8.193 35.102c0 1.44.484 2.728 1.393 3.605.91.877 2.171 1.293 3.508 1.293v-2.45c-.847 0-1.425-.238-1.807-.607-.382-.368-.644-.915-.644-1.841h-2.45z"/><path id="path1936" d="M13.094 10c-1.44 0-2.73.483-3.608 1.393-.877.909-1.293 2.17-1.293 3.505h2.45c0-.847.238-1.422.607-1.804.369-.382.918-.645 1.844-.645V10z"/><path id="path1948" d="M33.906 10v2.45c.847 0 1.425.238 1.807.607.382.368.644.915.644 1.841h2.45c0-1.44-.484-2.728-1.393-3.605-.91-.877-2.171-1.293-3.508-1.293z"/><path id="path1952" d="M36.357 35.102c0 .847-.238 1.422-.607 1.804-.369.382-.918.645-1.844.645V40c1.44 0 2.73-.483 3.608-1.393.877-.909 1.293-2.17 1.293-3.505h-2.45z"/><path id="path1940" d="M8.193 18.469v4.695h2.45V18.47h-2.45z"/><path id="path1944" d="M8.193 26.836v4.695h2.45v-4.695h-2.45z" /><path id="path1956" d="M36.357 18.469v4.695h2.45V18.47h-2.45z"/><path id="path1960" d="M36.357 26.836v4.695h2.45v-4.695h-2.45z"/><path id="path1964" d="M25.44 10v2.45h4.693V10h-4.694z"/><path id="path1968" d="M16.867 10v2.45h4.694V10h-4.694z"/><path id="path1972" d="M25.44 37.55V40h4.693v-2.45h-4.694z" /><path id="path1976" d="M16.867 37.55V40h4.694v-2.45h-4.694z" /></svg>